# xmcd
#
# Track frame offsets:
#	225
#	17278
#	41120
#	61518
#	81245
#	98350
#	113921
#	134364
#	151600
#	166366
#	188527
#	204580
#
# Disc length: 2971 seconds
#
# Revision: 0
# Processed by: cddbd v1.4PL0 Copyright (c) Steve Scherf et al.
# Submitted via: EasyCDDAExtractor 4.6.0.1
#
DISCID=850b980c
DTITLE=Various Artist - Crazy Elephant House Rocking Blues
DYEAR=1998
DGENRE=Blues
TTITLE0=Low Down and Dirty - Luther Allison
TTITLE1=Don't Lie To Me - Son Seals
TTITLE2=Low Down Dirty Shame - Carey Bell
TTITLE3=Natural Disaster - Lonnie Mack
TTITLE4=Keep Your Motor Running - Dave Hole
TTITLE5=Pawn Broker - Tinsley Ellis
TTITLE6=She's Gone Michael Hill's Blues Mob
TTITLE7=Hoodoo She Do - Lonnie Brooks
TTITLE8=Bayou Blood - Kenny Neal
TTITLE9=Mojo Boogie - Johnny Winter
TTITLE10=Short Fuse - Roy Buchanan
TTITLE11=Albert's Alley - Albert Collins
EXTD=
EXTT0=
EXTT1=
EXTT2=
EXTT3=
EXTT4=
EXTT5=
EXTT6=
EXTT7=
EXTT8=
EXTT9=
EXTT10=
EXTT11=Albert Collins, Robert Cray and Johnny Copeland
PLAYORDER=
